<?xml version="1.0" encoding="UTF-8" standalone="no"?>
<!DOCTYPE svg PUBLIC "-//W3C//DTD SVG 1.1//EN" "http://www.w3.org/Graphics/SVG/1.1/DTD/svg11.dtd">
<svg width="100%" height="100%" viewBox="0 0 24 24" version="1.1" xmlns="http://www.w3.org/2000/svg" xmlns:xlink="http://www.w3.org/1999/xlink" xml:space="preserve" xmlns:serif="http://www.serif.com/" style="fill-rule:evenodd;clip-rule:evenodd;">
    <g id="general_pref_icon" transform="matrix(1.5,0,0,1.5,1.5,1.5)">
        <g id="Page-1">
            <g id="general">
                <g id="general_pref_icon1" serif:id="general_pref_icon">
                    <path id="Shape" d="M7.686,0.034C7.23,-0.011 6.77,-0.011 6.314,0.034L6.108,1.117C5.671,1.184 5.243,1.298 4.831,1.459L4.111,0.624C3.693,0.813 3.295,1.043 2.923,1.31L3.286,2.352C2.941,2.627 2.627,2.941 2.352,3.286L1.31,2.923C1.043,3.295 0.813,3.693 0.624,4.111L1.459,4.831C1.298,5.243 1.184,5.671 1.117,6.108L0.034,6.314C-0.011,6.77 -0.011,7.23 0.034,7.686L1.117,7.892C1.184,8.329 1.298,8.757 1.459,9.169L0.624,9.889C0.813,10.307 1.043,10.705 1.31,11.077L2.352,10.714C2.627,11.059 2.941,11.373 3.286,11.648L2.923,12.69C3.295,12.957 3.693,13.187 4.111,13.376L4.831,12.541C5.243,12.702 5.671,12.816 6.108,12.883L6.314,13.966C6.77,14.011 7.23,14.011 7.686,13.966L7.892,12.883C8.329,12.816 8.757,12.702 9.169,12.541L9.889,13.376C10.307,13.187 10.705,12.957 11.077,12.69L10.714,11.648C11.059,11.373 11.373,11.059 11.648,10.714L12.69,11.077C12.957,10.705 13.187,10.307 13.376,9.889L12.541,9.169C12.702,8.757 12.817,8.329 12.883,7.892L13.966,7.686C14.011,7.23 14.011,6.77 13.966,6.314L12.883,6.108C12.817,5.671 12.702,5.243 12.541,4.831L13.376,4.111C13.187,3.693 12.957,3.295 12.69,2.923L11.648,3.286C11.373,2.941 11.059,2.627 10.714,2.352L11.077,1.31C10.705,1.043 10.307,0.813 9.889,0.624L9.169,1.459C8.757,1.298 8.329,1.184 7.892,1.117L7.686,0.034ZM7,5.6C7.773,5.6 8.4,6.227 8.4,7C8.4,7.773 7.773,8.4 7,8.4C6.227,8.4 5.6,7.773 5.6,7C5.6,6.227 6.227,5.6 7,5.6Z" style="fill:none;stroke:#000000;stroke-width:1px;"/>
                </g>
            </g>
        </g>
    </g>
</svg>
